<svg xmlns="http://www.w3.org/2000/svg" viewBox="0 0 200 200" role="img" aria-label="他们">
<g fill="#b4552d" opacity="1" transform="translate(46 130) scale(0.85)"><circle cx="0" cy="-18" r="13"/><path d="M-18 22a18 20 0 0 1 36 0z"/></g><g fill="#b4552d" opacity="1" transform="translate(90 130) scale(0.85)"><circle cx="0" cy="-18" r="13"/><path d="M-18 22a18 20 0 0 1 36 0z"/></g><g fill="#b4552d" opacity="1" transform="translate(134 130) scale(0.85)"><circle cx="0" cy="-18" r="13"/><path d="M-18 22a18 20 0 0 1 36 0z"/></g><g fill="#b4552d" opacity="1" transform="translate(172 130) scale(0.85)"><circle cx="0" cy="-18" r="13"/><path d="M-18 22a18 20 0 0 1 36 0z"/></g><path d="M20 158h160" stroke="#2f5d4f" stroke-width="6" stroke-linecap="round" fill="none" opacity=".4"/>
</svg>
